# AST/ASF file generated using VICON BodyLanguage
# -----------------------------------------------
:version 1.10
:name VICON
:units
  mass 1.0
  length 0.45
  angle deg
:documentation
   .ast/.asf automatically generated from VICON data using
   VICON BodyBuilder and BodyLanguage model FoxedUp or BRILLIANT.MOD
:root
   order TX TY TZ RX RY RZ
   axis XYZ
   position 0 0 0  
   orientation 0 0 0 
:bonedata
  begin
     id 1 
     name lhipjoint
     direction 0.78388 -0.462562 0.414208 
     length 3.01181 
     axis 0 0 0  XYZ
  end
  begin
     id 2 
     name lfemur
     direction 0.34202 -0.939693 0  
     length 6.04673  
     axis 0 0 20  XYZ
    dof rx ry rz
    limits (-160.0 20.0)
           (-70.0 70.0)
           (-60.0 70.0)
  end
  begin
     id 3 
     name ltibia
     direction 0.34202 -0.939693 0   
     length 7.211   
     axis 0 0 20   XYZ
    dof rx
    limits (-10.0 170.0)
  end
  begin
     id 4 
     name lfoot
     direction 0.121887 -0.334882 0.934344   
     length 2.13567   
     axis -90 7.62852e-016 20   XYZ
    dof rx rz
    limits (-45.0 90.0)
           (-70.0 20.0)
  end
  begin
     id 5 
     name ltoes
     direction 1.53555e-011 -4.2179e-011 1   
     length 1.05957   
     axis -90 7.62852e-016 20   XYZ
    dof rx
    limits (-90.0 20.0)
  end
  begin
     id 6 
     name rhipjoint
     direction -0.769387 -0.475875 0.426129   
     length 2.92756  
     axis 0 0 0  XYZ 
  end
  begin
     id 7 
     name rfemur
     direction -0.34202 -0.939693 0   
     length 6.35468   
     axis 0 0 -20   XYZ
    dof rx ry rz
    limits (-160.0 20.0)
           (-70.0 70.0)
           (-70.0 60.0)
  end
  begin
     id 8 
     name rtibia
     direction -0.34202 -0.939693 0   
     length 7.37886   
     axis 0 0 -20   XYZ
    dof rx
    limits (-10.0 170.0)
 end
 begin
     id 9 
     name rfoot
     direction -0.101763 -0.279592 0.954711   
     length 2.21478  
     axis -90 -7.62852e-016 -20   XYZ
    dof rx rz
    limits (-45.0 90.0)
           (-20.0 70.0)
  end
  begin
     id 10 
     name rtoes
     direction -1.53494e-011 -4.21851e-011 1   
     length 1.10506   
     axis -90 -7.62852e-016 -20   XYZ
    dof rx
    limits (-90.0 20.0)
  end
  begin
     id 11 
     name lowerback
     direction 0.00747405 0.999267 0.0375481   
     length 2.13259   
     axis 0 0 0   XYZ
    dof rx ry rz
    limits (-20.0 45.0)
           (-30.0 30.0)
           (-30.0 30.0)
  end
  begin
     id 12 
     name upperback
     direction 0.00661626 0.996177 0.0871029   
     length 2.10528   
     axis 0 0 0   XYZ
    dof rx ry rz
    limits (-20.0 45.0)
           (-30.0 30.0)
           (-30.0 30.0)
  end
  begin
     id 13 
     name thorax
     direction 0.00320659 0.997679 0.0680167   
     length 2.11338   
     axis 0 0 0   XYZ
    dof rx ry rz
    limits (-20.0 45.0)
           (-30.0 30.0)
           (-30.0 30.0)
  end
  begin
     id 14 
     name lowerneck
     direction 0.0374841 0.973033 0.227602   
     length 1.42765   
     axis 0 0 0   XYZ
    dof rx ry rz
    limits (-20.0 45.0)
           (-30.0 30.0)
           (-30.0 30.0)
  end
  begin
     id 15 
     name upperneck
     direction 0.00481585 0.989155 -0.146795   
     length 1.47593   
     axis 0 0 0   XYZ
    dof rx ry rz
    limits (-20.0 45.0)
           (-30.0 30.0)
           (-30.0 30.0)
  end
  begin
     id 16
     name head
     direction -0.00292522 0.997206 -0.0746423  
     length 1.48116  
     axis 0 0 0   XYZ
    dof rx ry rz
    limits (-20.0 45.0)
           (-30.0 30.0)
           (-30.0 30.0)
  end
  begin
     id 17 
     name lclavicle
     direction 0.951444 0.305606 0.0368784  
     length 3.01855  
     axis 0 0 0   XYZ
    dof ry rz
    limits (-20.0 10.0)
           (0.0 20.0)
  end
  begin
     id 18 
     name lhumerus
     direction 1 -4.48977e-011 2.61664e-027   
     length 5.52731   
     axis 180 -30 -90   XYZ
    dof rx ry rz
    limits (-60.0 90.0)
           (-90.0 90.0)
           (-90.0 90.0)
  end
  begin
     id 19
     name lradius
     direction 1 -4.48944e-011 8.22157e-027   
     length 3.11059   
     axis 180 -30 -90   XYZ
    dof rx
    limits (-10.0 170.0)
  end
  begin
     id 20
     name lwrist
     direction 1 -4.48976e-011 1.5779e-026   
     length 1.5553   
     axis -1.15221e-014 90 90   XYZ
    dof ry
    limits (-180.0 0.0)
 end
  begin
     id 21 
     name lhand
     direction 1 -4.49025e-011 3.1558e-026   
     length 0.419626   
     axis -2.01367e-014 90 90   XYZ
    dof rx rz
    limits (-90.0 90.0)
           (-45.0 45.0)
  end
  begin
     id 22 
     name lfingers
     direction 1 -4.4904e-011 6.31161e-026   
     length 0.338313   
     axis -4.02734e-014 90 90   XYZ
    dof rx
    limits (0.0 90.0)
  end
  begin
     id 23
     name lthumb
     direction 0.707107 -6.35004e-011 0.707107   
     length 0.485752   
     axis -90 45 2.85299e-015   XYZ
    dof rx rz
    limits (-45.0 45.0)
           (-45.0 45.0)
  end
  begin
     id 24 
     name rclavicle
     direction -0.968876 0.223791 0.105816   
     length 3.04177  
     axis 0 0 0   XYZ 
    dof ry rz
    limits (-10.0 20.0)
           (-20.0 0.0)
  end
  begin
     id 25 
     name rhumerus
     direction -1 -4.48962e-011 -1.01384e-027  
     length 5.25396   
     axis 180 30 90   XYZ
    dof rx ry rz
    limits (-90.0 60.0)
           (-90.0 90.0)
           (-90.0 90.0)
  end
  begin
     id 26 
     name rradius
     direction -1 -4.48955e-011 8.88542e-027   
     length 3.10567   
     axis 180 30 90   XYZ
    dof rx
    limits (-10.0 170.0)
  end
  begin
     id 27 
     name rwrist
     direction -1 -4.48994e-011 1.5779e-026   
     length 1.55283   
     axis -1.15221e-014 -90 -90   XYZ
    dof ry
    limits (-180.0 0.0)
  end
  begin
     id 28
     name rhand
     direction -1 -4.48891e-011 3.1558e-026   
     length 0.498676   
     axis -2.01367e-014 -90 -90   XYZ
    dof rx rz
    limits (-90.0 90.0)
           (-45.0 45.0)
  end
  begin
     id 29
     name rfingers
     direction -1 -4.48972e-011 6.31161e-026   
     length 0.402045   
     axis -4.02734e-014 -90 -90   XYZ
    dof rx
    limits (0.0 90.0)
  end
  begin
     id 30
     name rthumb
     direction -0.707107 -6.34849e-011 0.707107   
     length 0.577259   
     axis -90 -45 -2.85299e-015   XYZ
    dof rx rz
    limits (-45.0 45.0)
           (-45.0 45.0)
  end
:hierarchy
  begin
    root lhipjoint rhipjoint lowerback
    lhipjoint lfemur
    lfemur ltibia
    ltibia lfoot
    lfoot ltoes
    rhipjoint rfemur
    rfemur rtibia
    rtibia rfoot
    rfoot rtoes
    lowerback upperback
    upperback thorax
    thorax lowerneck lclavicle rclavicle
    lowerneck upperneck
    upperneck head
    lclavicle lhumerus
    lhumerus lradius
    lradius lwrist
    lwrist lhand lthumb
    lhand lfingers
    rclavicle rhumerus
    rhumerus rradius
    rradius rwrist
    rwrist rhand rthumb
    rhand rfingers
  end

#!OML:ASF H:\Pregnant\Project 1\Capture day 1\Session 1\femalepreg.ASF
:FULLY-SPECIFIED
:DEGREES
137
root 6.44375 15.1919 32.938 -155.097 -4.04931 -180.963
lowerback -17.9278 2.23493 1.49211
upperback -6.97734 1.49699 1.20763
thorax 2.58321 0.238579 0.701452
lowerneck -24.7657 3.22755 4.14219
upperneck 34.2543 1.78602 -1.03582
head 16.59 0.570045 -0.962115
rclavicle -1.13059e-014 -1.51076e-014
rhumerus -38.3336 -9.04201 -72.9036
rradius 34.7412
rwrist -6.41666
rhand -16.1431 -18.9039
rfingers 7.12502
rthumb 10.0621 -48.6433
lclavicle -1.13059e-014 -1.51076e-014
lhumerus -51.2864 -13.098 81.6048
lradius 47.9331
lwrist 43.003
lhand -27.3151 -2.63885
lfingers 7.12502
lthumb -0.724388 27.3397
rfemur -53.9549 15.3175 16.3697
rtibia 44.8003
rfoot -12.3414 -10.3556
rtoes -3.56246
lfemur -23.5181 -2.08503 -27.3802
ltibia 33.6131
lfoot -12.7584 -0.11502
ltoes -43.913
138
root 6.42333 15.2038 32.8704 -155.433 -4.46344 -180.832
lowerback -17.5173 2.23899 2.26354
upperback -6.92217 1.39339 1.46254
thorax 2.44318 0.187063 0.506995
lowerneck -24.7437 3.29345 4.29265
upperneck 33.9818 2.04677 -1.4698
head 16.4645 0.646058 -1.11633
rclavicle 4.43787e-014 1.27222e-014
rhumerus -38.3472 -9.72725 -72.1578
rradius 33.7026
rwrist -6.29593
rhand -16.5473 -19.1393
rfingers 7.12502
rthumb 9.67213 -48.8973
lclavicle 4.43787e-014 1.27222e-014
lhumerus -51.5783 -13.0277 81.663
lradius 48.2177
lwrist 43.269
lhand -27.6741 -2.74728
lfingers 7.12502
lthumb -1.07117 27.2298
rfemur -53.001 15.2017 16.7342
rtibia 44.5033
rfoot -12.5604 -10.6779
rtoes -3.70474
lfemur -24.8208 -1.87022 -27.1377
ltibia 36.5214
lfoot -11.9365 -1.33028
ltoes -44.0488
139
root 6.40351 15.2146 32.805 -155.774 -4.89445 -180.671
lowerback -17.0804 2.23416 3.05128
upperback -6.87499 1.28074 1.71879
thorax 2.27756 0.128177 0.303671
lowerneck -24.7147 3.37591 4.49941
upperneck 33.7117 2.30993 -1.92547
head 16.344 0.726671 -1.28854
rclavicle 1.14301e-015 3.57812e-014
rhumerus -38.3809 -10.3634 -71.4245
rradius 32.7141
rwrist -6.15187
rhand -16.9007 -19.4208
rfingers 7.12502
rthumb 9.33112 -49.1943
lclavicle 1.14301e-015 3.57812e-014
lhumerus -51.8529 -12.9677 81.711
lradius 48.4448
lwrist 43.4922
lhand -27.9467 -2.8344
lfingers 7.12502
lthumb -1.33446 27.1412
rfemur -52.04 15.0838 17.1321
rtibia 44.1825
rfoot -12.7629 -11.0017
rtoes -3.85753
lfemur -26.1551 -1.7586 -26.8096
ltibia 39.4209
lfoot -10.7937 -2.61474
ltoes -43.7046
140
root 6.38433 15.224 32.7416 -156.109 -5.32074 -180.485
lowerback -16.6256 2.23296 3.84682
upperback -6.84494 1.17675 1.96257
thorax 2.08121 0.0694373 0.0855903
lowerneck -24.64 3.45763 4.74265
upperneck 33.4345 2.54802 -2.37591
head 16.2127 0.801459 -1.46942
rclavicle -2.73329e-015 5.00937e-014
rhumerus -38.4398 -10.9873 -70.6948
rradius 31.7413
rwrist -5.94475
rhand -17.1495 -19.7969
rfingers 7.12502
rthumb 9.09113 -49.5809
lclavicle -2.73329e-015 5.00937e-014
lhumerus -52.1186 -12.946 81.7514
lradius 48.6186
lwrist 43.687
lhand -28.1955 -2.86384
lfingers 7.12502
lthumb -1.57474 27.1101
rfemur -51.0982 14.9773 17.5473
rtibia 43.8483
rfoot -12.9441 -11.324
rtoes -4.04458
lfemur -27.5114 -1.74822 -26.4051
ltibia 42.2761
lfoot -9.36902 -3.90642
ltoes -42.852
141
root 6.36594 15.2316 32.6801 -156.421 -5.7293 -180.28
lowerback -16.1749 2.23132 4.62846
upperback -6.82389 1.07895 2.19846
thorax 1.87392 0.0103334 -0.130076
lowerneck -24.5693 3.54307 5.02634
upperneck 33.1669 2.76686 -2.82353
head 16.0908 0.873456 -1.65938
rclavicle 4.47266e-016 1.59028e-014
rhumerus -38.5043 -11.5612 -69.9883
rradius 30.8156
rwrist -5.69671
rhand -17.2697 -20.1969
rfingers 7.12502
rthumb 8.97509 -49.986
lclavicle 4.47266e-016 1.59028e-014
lhumerus -52.3426 -12.9349 81.7798
lradius 48.7233
lwrist 43.8539
lhand -28.4158 -2.83942
lfingers 7.12502
lthumb -1.78748 27.1328
rfemur -50.2035 14.8874 17.9656
rtibia 43.5116
rfoot -13.1131 -11.6429
rtoes -4.20186
lfemur -28.8875 -1.84036 -25.9312
ltibia 45.0556
lfoot -7.62511 -5.09493
ltoes -41.4031
